<svg width="14" height="14" viewBox="0 0 14 14" fill="none" xmlns="http://www.w3.org/2000/svg">
  <path d="M5.53471 11.6667C5.39665 11.6667 5.2829 11.6216 5.19346 11.5313C5.10402 11.4407 5.05929 11.3287 5.05929 11.1953V8.94076H2.80471C2.67132 8.94076 2.55932 8.89565 2.46871 8.80543C2.3781 8.71521 2.33299 8.60321 2.33338 8.46943V5.54576C2.33338 5.40771 2.37849 5.29396 2.46871 5.20451C2.55893 5.11507 2.67093 5.07035 2.80471 5.07035H5.05929V2.80468C5.05929 2.67129 5.1044 2.55929 5.19463 2.46868C5.28485 2.37807 5.39685 2.33296 5.53063 2.33335H8.45429C8.59235 2.33335 8.7061 2.37846 8.79554 2.46868C8.88499 2.55929 8.92971 2.67129 8.92971 2.80468V5.07035H11.1954C11.3292 5.07035 11.4412 5.11565 11.5314 5.20626C11.6216 5.29687 11.6667 5.40868 11.6667 5.54168V8.46535C11.6667 8.6034 11.6216 8.71715 11.5314 8.8066C11.4408 8.89604 11.3288 8.94076 11.1954 8.94076H8.92971V11.1953C8.92971 11.3291 8.8844 11.4411 8.79379 11.5313C8.70318 11.6216 8.59138 11.6667 8.45838 11.6667H5.53471Z" fill="#ffffff"/>
</svg>
